# xmcd
#
# Track frame offsets:
#	150
#	16367
#	33881
#	51953
#	66677
#	78988
#	93714
#	106324
#	125493
#	141211
#	160725
#	170157
#	195517
#	211522
#	227220
#	241192
#	254821
#	275187
#	299111
#	308192
#
# Disc length: 4369 seconds
#
# Revision: 1
# Processed by: cddbd v1.5.2PL0 Copyright (c) Steve Scherf et al.
# Submitted via: audiograbber 1.83.01
#
DISCID=33110f14
DTITLE=TSP Country - TSP Country 019
DYEAR=2006
DGENRE=Country
TTITLE0=Misty Mississippi Monday Morning  - Joe Berry and The Berry Pickers
TTITLE1=Hide The Gasoline  - Bird and Tines
TTITLE2=The Man That Made My Mama Cry  - Laurelyn Carter
TTITLE3=Ho Bo  - Vernon Oxford 
TTITLE4=God Bless The Man In Black  - Bill Workman
TTITLE5=Spin My Heart  - Danielle Meyers
TTITLE6=Everything I Do Turns To Cash  - Jim Cook and The Taylormacs
TTITLE7=I Cry  - Natalie Green
TTITLE8=One Way Ticket To Nowhere  - Darryll Lee O´donnell
TTITLE9=Best Things In Life  - Bryan Burnett
TTITLE10=Set In My Ways  - Paul Brannon
TTITLE11=Earthboiund Eagle  - Skyeline
TTITLE12=New Mexico Swing  - Rev Otis Moon
TTITLE13=In A Minute  - Bryan Burnett
TTITLE14=Honky Tonking  - Robert Leggat
TTITLE15=Thatr´s What Gets To Me  - Natalie Green
TTITLE16=Kit and Kaboodle  - Rev Otis Moon
TTITLE17=Saigon Revisted  - Jim Cook and The Taylormacs
TTITLE18=Me Want A Mustache For Christmas  - Stan Anderson
TTITLE19=Special Thing  - Skyline
EXTD=
EXTT0=
EXTT1=
EXTT2=
EXTT3=
EXTT4=
EXTT5=
EXTT6=
EXTT7=
EXTT8=
EXTT9=
EXTT10=
EXTT11=
EXTT12=
EXTT13=
EXTT14=
EXTT15=
EXTT16=
EXTT17=
EXTT18=
EXTT19=
PLAYORDER=
